<svg width="81" height="51" viewBox="0 0 81 51" fill="none" xmlns="http://www.w3.org/2000/svg">
<g clip-path="url(#clip0_11_27)">
<path d="M10.1999 37.4187L9.1306 46.1632C9.06294 46.6847 8.98703 47.1401 8.90452 47.5279C8.82201 47.9141 8.72795 48.2408 8.62398 48.5049C8.4078 49.0461 8.08931 49.5098 7.66521 49.896C6.84175 50.6336 5.77406 51.0016 4.45883 51.0016C3.14361 51.0016 2.00166 50.6452 1.15839 49.9323C0.727688 49.5759 0.427348 49.1699 0.255725 48.7161C0.0841024 48.2986 -0.00170898 47.7111 -0.00170898 46.957H1.97195C2.02146 47.7738 2.22939 48.3679 2.59904 48.7408C2.96868 49.1121 3.53966 49.2986 4.31361 49.2986C5.14862 49.2986 5.78396 49.0758 6.22126 48.6303C6.65692 48.1847 6.93416 47.4768 7.05132 46.5065L7.19984 45.3183C6.34008 45.9751 5.43576 46.3035 4.49019 46.3035C3.31028 46.3035 2.33665 45.9008 1.5693 45.0972C0.801947 44.2737 0.417446 43.2473 0.417446 42.0195C0.417446 40.6366 0.863005 39.4914 1.75412 38.5821C2.65184 37.6662 3.77234 37.2091 5.11727 37.2091C5.7625 37.2091 6.28397 37.3048 6.68333 37.4963C7.11898 37.6794 7.57114 38.0144 8.03815 38.4996L8.16687 37.422H10.2032L10.1999 37.4187ZM7.85993 41.5376C7.85993 40.7505 7.62065 40.1185 7.14044 39.6399C6.66187 39.1547 6.03479 38.9121 5.26084 38.9121C4.48688 38.9121 3.78554 39.2059 3.25087 39.7967C2.7228 40.3808 2.45877 41.1152 2.45877 41.9997C2.45877 42.7737 2.6865 43.4057 3.14031 43.8975C3.60072 44.3711 4.20965 44.6071 4.9638 44.6071C5.80541 44.6071 6.49685 44.3183 7.03812 43.7407C7.58434 43.1565 7.85828 42.4238 7.85828 41.5376H7.85993Z" fill="#7EC247"/>
<path d="M21.6278 37.4171L20.5585 46.0972H18.5221L18.6409 45.1566C17.768 45.919 16.8653 46.3002 15.9329 46.3002C14.7844 46.3002 13.847 45.9107 13.1209 45.1302C12.3965 44.3496 12.0334 43.3397 12.0334 42.0987C12.0334 40.6663 12.4477 39.493 13.2777 38.5772C14.1193 37.6629 15.1969 37.2042 16.5121 37.2042C17.1326 37.2042 17.6607 37.3048 18.098 37.5078C18.5403 37.7108 18.9908 38.0606 19.4528 38.559L19.5914 37.4154H21.6278V37.4171ZM19.1492 41.5079C19.1492 40.7389 18.9281 40.1168 18.4858 39.6366C18.0435 39.1531 17.4709 38.9089 16.7712 38.9089C16.0105 38.9089 15.3702 39.2075 14.8537 39.8033C14.3388 40.404 14.0814 41.1433 14.0814 42.0146C14.0814 42.7753 14.2959 43.3991 14.725 43.8843C15.1557 44.3694 15.7085 44.612 16.3851 44.612C17.1343 44.612 17.7828 44.3067 18.329 43.6994C18.8753 43.079 19.1492 42.3479 19.1492 41.5063V41.5079Z" fill="#7EC247"/>
<path d="M31.5621 44.2094L31.3311 46.0989H22.4116L28.227 39.3066H23.8671L24.0965 37.4171H32.2799L26.4283 44.2094H31.5621Z" fill="#7EC247"/>
<path d="M42.7769 37.4171L41.7076 46.0972H39.6712L39.7917 45.1566C38.9187 45.919 38.016 46.3002 37.082 46.3002C35.9335 46.3002 34.9978 45.9107 34.2717 45.1302C33.5473 44.3496 33.1842 43.3397 33.1842 42.0987C33.1842 40.6663 33.6001 39.493 34.4285 38.5772C35.2701 37.6629 36.3477 37.2042 37.6629 37.2042C38.2834 37.2042 38.8114 37.3048 39.2471 37.5078C39.6894 37.7108 40.1415 38.0606 40.6019 38.559L40.7406 37.4154H42.7753L42.7769 37.4171ZM40.2983 41.5079C40.2983 40.7389 40.0772 40.1168 39.6333 39.6366C39.191 39.1531 38.62 38.9089 37.9203 38.9089C37.1579 38.9089 36.5193 39.2075 36.0028 39.8033C35.4879 40.404 35.2288 41.1433 35.2288 42.0146C35.2288 42.7753 35.445 43.3991 35.8741 43.8843C36.3031 44.3694 36.8576 44.612 37.5342 44.612C38.2834 44.612 38.9319 44.3067 39.4781 43.6994C40.0244 43.079 40.2983 42.3479 40.2983 41.5063V41.5079Z" fill="#7EC247"/>
<path d="M47.66 37.4171L47.5676 38.1629C48.2557 37.5128 48.9504 37.186 49.6501 37.186C50.264 37.186 50.8234 37.4104 51.3268 37.8593L50.0264 39.5359C49.6518 39.2158 49.2772 39.0557 48.9009 39.0557C48.6435 39.0557 48.4158 39.1069 48.2194 39.2075C48.023 39.3082 47.853 39.4683 47.7078 39.6861C47.5626 39.9039 47.4421 40.1861 47.3481 40.5294C47.2524 40.8743 47.1781 41.2852 47.1237 41.7654L46.589 46.0955H44.5526L45.622 37.4154H47.6583L47.66 37.4171Z" fill="#7EC247"/>
<path d="M53.5578 45.0939C53.5578 45.419 53.4324 45.7028 53.18 45.9404C52.9275 46.1797 52.6354 46.3002 52.3053 46.3002C51.9753 46.3002 51.6783 46.1764 51.439 45.9305C51.1997 45.6846 51.0792 45.3843 51.0792 45.0279C51.0792 44.6714 51.1898 44.3958 51.4109 44.1615C51.6453 43.9272 51.9241 43.8116 52.2492 43.8116C52.6123 43.8116 52.9176 43.9371 53.1701 44.1895C53.4275 44.442 53.5562 44.7424 53.5562 45.0922" fill="#F69126"/>
<path d="M66.0995 37.4171L65.0302 46.0972H62.9938L63.1126 45.1566C62.2413 45.919 61.337 46.3002 60.4046 46.3002C59.256 46.3002 58.3187 45.9107 57.5926 45.1302C56.8665 44.3496 56.5051 43.3397 56.5051 42.0987C56.5051 40.6663 56.921 39.493 57.7494 38.5772C58.591 37.6629 59.6686 37.2042 60.9838 37.2042C61.6043 37.2042 62.1324 37.3048 62.5697 37.5078C63.0119 37.7108 63.4624 38.0606 63.9229 38.559L64.0615 37.4154H66.0978L66.0995 37.4171ZM63.6209 41.5079C63.6209 40.7389 63.3997 40.1168 62.9575 39.6366C62.5152 39.1531 61.9426 38.9089 61.2429 38.9089C60.4822 38.9089 59.8435 39.2075 59.327 39.8033C58.8105 40.404 58.553 41.1433 58.553 42.0146C58.553 42.7753 58.7676 43.3991 59.1966 43.8843C59.6257 44.3694 60.1802 44.612 60.8551 44.612C61.6059 44.612 62.2528 44.3067 62.8007 43.6994C63.3469 43.079 63.6209 42.3479 63.6209 41.5063V41.5079Z" fill="#F69126"/>
<path d="M71.0485 37.4171L70.9561 38.2273C71.6442 37.5392 72.4396 37.1959 73.3439 37.1959C73.8902 37.1959 74.311 37.2982 74.6064 37.5012C74.9001 37.691 75.1658 38.0507 75.3985 38.5805C76.2582 37.6646 77.1856 37.2075 78.1824 37.2075C79.9019 37.2075 80.7633 37.9963 80.7633 39.5755C80.7633 39.7356 80.7485 39.96 80.7221 40.2488C80.694 40.5376 80.6544 40.8924 80.6065 41.3182L80.0174 46.1005H77.9794L78.6065 41.0789C78.6626 40.6119 78.689 40.2686 78.689 40.0475C78.689 39.2917 78.3094 38.9138 77.547 38.9138C77.2467 38.9138 76.9843 38.9584 76.7632 39.0475C76.5421 39.1366 76.3523 39.2735 76.1972 39.4633C76.0404 39.6514 75.9117 39.8924 75.811 40.1911C75.7103 40.4898 75.6311 40.8446 75.5767 41.2555L74.9859 46.1022H72.9512L73.5865 40.9518C73.641 40.4848 73.6707 40.1663 73.6707 39.993C73.6707 39.2735 73.2796 38.9138 72.499 38.9138C71.3686 38.9138 70.7085 39.6977 70.5188 41.2637L69.9197 46.1022H67.8817L68.9511 37.422H71.0534L71.0485 37.4171Z" fill="#F69126"/>
<path d="M13.5218 4.05953L16.2959 8.59268L10.5812 7.2164C9.69334 7.03818 8.82863 7.61575 8.65205 8.50357C8.48373 9.34518 8.99365 10.1736 9.82041 10.4046L15.5302 11.776L10.9954 14.5549C10.2396 15.0549 10.0333 16.0715 10.5333 16.8273C11.0086 17.5435 11.9574 17.7728 12.7066 17.3504L20.6161 12.5103C21.3868 12.0367 21.631 11.0284 21.1591 10.2578L16.319 2.34826C15.8256 1.58916 14.809 1.37463 14.0499 1.86804C13.3205 2.34331 13.0895 3.30538 13.5235 4.05953" fill="#95CA5C"/>
<path d="M13.5218 4.05953L16.2959 8.59268L10.5812 7.2164C9.69334 7.03818 8.82863 7.61575 8.65205 8.50357C8.48373 9.34518 8.99365 10.1736 9.82041 10.4046L15.5302 11.776L10.9954 14.5549C10.2396 15.0549 10.0333 16.0715 10.5333 16.8273C11.0086 17.5435 11.9574 17.7728 12.7066 17.3504L20.6161 12.5103C21.3868 12.0367 21.631 11.0284 21.1591 10.2578L16.319 2.34826C15.8256 1.58916 14.809 1.37463 14.0499 1.86804C13.3205 2.34331 13.0895 3.30538 13.5235 4.05953" fill="#7EC247"/>
<path d="M72.0667 23.7087C71.4132 26.4266 66.913 27.5999 61.4096 28.0273C61.6307 27.1857 61.6389 26.2995 61.4244 25.4299C61.0861 24.0569 60.2329 22.8951 59.02 22.1624C58.1817 21.6558 57.2411 21.3934 56.2856 21.3934C55.8582 21.3934 55.4308 21.4446 55.0084 21.5502C52.17 22.2499 50.4273 25.1279 51.1287 27.9646C51.1452 28.0323 51.1633 28.0999 51.1832 28.1659C48.7144 28.09 46.3728 27.9613 44.3876 27.8458C43.2671 27.7864 42.1631 27.7022 41.0789 27.623C39.9617 27.5405 38.8626 27.453 37.7966 27.3623C37.8774 26.7154 37.8411 26.0421 37.6778 25.3721C37.0441 22.7961 34.6892 21.0815 32.1363 21.1541C31.7502 21.1657 31.3574 21.2169 30.9647 21.3142C30.1858 21.5056 29.4745 21.8555 28.8623 22.339C28.3441 22.7433 27.8986 23.2466 27.5454 23.8275C27.1131 24.542 26.8523 25.3275 26.7698 26.1345C25.6625 25.9728 24.8424 25.8259 24.3737 25.7153C19.1046 24.443 16.1903 17.6804 17.8817 10.6621C19.5468 3.75589 25.0717 -1.0974 30.5158 0.214523C32.4944 0.689786 38.2124 2.87303 40.1151 3.61892C40.1151 3.61892 42.2175 4.44568 43.1812 4.84174C47.7243 6.68668 51.533 8.3633 55.3929 10.1868C56.3516 10.6406 57.3715 11.1225 58.4045 11.6406C65.2183 15.0351 73.0304 19.7036 72.065 23.7087" fill="#F89E20"/>
<path d="M13.5219 4.05953L16.2959 8.59268L10.5812 7.2164C9.70493 7.01012 8.82866 7.54809 8.61414 8.42106L21.3505 11.4888C21.4512 11.068 21.3835 10.6258 21.1574 10.2561L16.319 2.34826C15.8256 1.58916 14.8091 1.37463 14.05 1.86804C13.3206 2.34331 13.0895 3.30538 13.5235 4.05953" fill="#7FB342"/>
<path d="M30.5158 0.214525C32.496 0.691439 38.2124 2.87468 40.1151 3.61563C41.0128 3.96382 42.196 4.43578 43.1829 4.83844C47.7276 6.68338 51.5445 8.36165 55.3945 10.1835C56.3532 10.639 57.3731 11.1192 58.4045 11.6373C65.2199 15.0318 73.0304 19.6987 72.0666 23.7054L17.885 10.6604C19.5468 3.75589 25.0717 -1.0974 30.5158 0.214525Z" fill="#F08421"/>
<path d="M30.9664 21.3126C30.1875 21.504 29.4762 21.8538 28.864 22.3374L29.0719 21.4809C29.2766 20.6046 30.1545 20.0584 31.0307 20.2647C31.0373 20.2663 31.0423 20.268 31.0489 20.2696C31.4697 20.3752 31.8344 20.6393 32.0621 21.0073C32.0902 21.0551 32.1166 21.1046 32.1397 21.1541C31.7535 21.1657 31.3608 21.2152 30.968 21.3126" fill="#F08421"/>
<path d="M44.5625 20.1525C44.9833 20.2564 45.348 20.5205 45.5774 20.8901C45.8002 21.2614 45.8662 21.707 45.7622 22.1261L44.386 27.8474C43.2671 27.7798 42.1615 27.7039 41.0773 27.6247L42.5856 21.367C42.7968 20.4858 43.6797 19.9429 44.5625 20.1541V20.1525Z" fill="#F08421"/>
<path d="M40.1152 3.61563C40.1152 3.61563 41.8479 4.28892 43.1813 4.83844L42.1978 8.90623C42.0641 9.8023 41.2308 10.4195 40.333 10.2858C39.4386 10.1521 38.8198 9.31714 38.9535 8.42272C38.9683 8.327 38.9914 8.23294 39.0211 8.14218L40.1152 3.61728V3.61563Z" fill="#E37525"/>
<path d="M55.3929 10.1835C56.3516 10.639 57.3715 11.1192 58.4045 11.639L57.3781 15.9296C57.2444 16.8256 56.4094 17.4428 55.515 17.3091C54.6189 17.1755 54.0001 16.3421 54.1354 15.4444C54.1502 15.3503 54.1717 15.2563 54.2031 15.1655L55.3945 10.1835H55.3929Z" fill="#E37525"/>
<path d="M55.3252 22.8374C57.4573 22.3126 59.6125 23.6163 60.1372 25.7484C60.662 27.8821 59.3583 30.0356 57.2263 30.5604C55.0925 31.0852 52.939 29.7815 52.4142 27.6494C51.8878 25.5173 53.1915 23.3621 55.3252 22.8374Z" fill="#7EC247"/>
<path d="M31.275 22.5634C33.5589 22.0007 35.8642 23.3968 36.427 25.6791C36.988 27.963 35.5936 30.2683 33.3097 30.831C31.0274 31.3921 28.7204 29.9977 28.1594 27.7154C27.5983 25.4332 28.9927 23.1262 31.275 22.5634Z" fill="#7EC247"/>
</g>
<defs>
<clipPath id="clip0_11_27">
<rect width="80.7617" height="51" fill="white"/>
</clipPath>
</defs>
</svg>
